# xmcd
#
# Track frame offsets: 
#        150
#        14398
#        30065
#        44911
#        59642
#        75525
#        91405
#        106827
#        120237
#        138241
#        153237
#
# Disc length: 2278 seconds
#
# Revision: 2
# Processed by: cddbd v1.5.2PL0 Copyright (c) Steve Scherf et al.
# Submitted via: ExactAudioCopy v1.0b3
#
DISCID=7e08e40b
DTITLE=Maren Morris - Hero
DYEAR=2016
DGENRE=Country
TTITLE0=Sugar
TTITLE1=Rich
TTITLE2=My Church
TTITLE3=I Could Use a Love Song
TTITLE4='80s Mercedes
TTITLE5=Drunk Girls Don't Cry
TTITLE6=How It's Done
TTITLE7=Just Another Thing
TTITLE8=I Wish I Was
TTITLE9=Second Wind
TTITLE10=Once
EXTD=
EXTT0=
EXTT1=
EXTT2=
EXTT3=
EXTT4=
EXTT5=
EXTT6=
EXTT7=
EXTT8=
EXTT9=
EXTT10=
PLAYORDER=
